<svg width="24" height="24" viewBox="0 0 24 24" fill="none" xmlns="http://www.w3.org/2000/svg">
<path d="M7 13.2H6.2V14V20C6.2 20.1105 6.11046 20.2 6 20.2C5.88954 20.2 5.8 20.1105 5.8 20V5C5.8 4.88954 5.88954 4.8 6 4.8H13.1802C13.2755 4.8 13.3576 4.86729 13.3763 4.96078L13.4548 5.35301C13.623 6.19437 14.3618 6.8 15.2198 6.8H19C19.1105 6.8 19.2 6.88954 19.2 7V15C19.2 15.1105 19.1105 15.2 19 15.2H13.8198C13.7245 15.2 13.6424 15.1327 13.6237 15.0392L13.5452 14.647C13.377 13.8056 12.6382 13.2 11.7802 13.2H7Z" stroke="#222222" stroke-width="1.6"/>
</svg>
