<svg width="24" height="24" viewBox="0 0 24 24" fill="none" xmlns="http://www.w3.org/2000/svg">
<path d="M2.66779 13.7181C1.99134 12.6749 1.99134 11.3251 2.66779 10.2819C4.65183 7.22219 8.08903 5.2 11.9998 5.2C15.9107 5.2 19.3479 7.22219 21.3319 10.2819C22.0084 11.3251 22.0084 12.6749 21.3319 13.7181C19.3479 16.7778 15.9107 18.8 11.9998 18.8C8.08903 18.8 4.65183 16.7778 2.66779 13.7181Z" stroke="#222222" stroke-width="1.4"/>
<path d="M12 8.3C9.9534 8.3 8.3 9.9534 8.3 12C8.3 14.0466 9.9534 15.7 12 15.7C14.0466 15.7 15.7 14.0466 15.7 12C15.7 9.9534 14.0466 8.3 12 8.3Z" stroke="#222222" stroke-width="1.4"/>
</svg>
