<svg width="24" height="24" viewBox="0 0 24 24" fill="none" xmlns="http://www.w3.org/2000/svg">
<path d="M4.19939 8.49811C3.90807 8.60437 3.57807 8.35316 3.60295 8.04406L3.94196 3.83144C3.96703 3.51993 4.33315 3.38347 4.59961 3.58632L5.81854 4.51425L7.01206 5.42283L8.23096 6.35074C8.49742 6.55359 8.46335 6.94282 8.16975 7.04991L4.19939 8.49811Z" fill="#222222"/>
<path d="M7.80133 6.65207L4.10818 7.99916L4.42352 4.08067L5.51568 4.91209L5.81854 4.51425L5.51568 4.91209L6.7092 5.82067L7.01206 5.42283L6.7092 5.82067L7.80133 6.65207Z" stroke="#222222" stroke-linecap="round" stroke-linejoin="round"/>
<path fill-rule="evenodd" clip-rule="evenodd" d="M11.5806 20.1893C11.1616 20.1679 10.7426 20.1142 10.3274 20.0276C8.39538 19.6251 6.67335 18.5393 5.47734 16.9695C4.28134 15.3997 3.6916 13.4512 3.81637 11.4816C3.8443 11.0407 3.50949 10.6606 3.06854 10.6326C2.6276 10.6047 2.2475 10.9395 2.21957 11.3805C2.07046 13.7343 2.77526 16.063 4.20464 17.9391C5.63401 19.8152 7.69205 21.1129 10.001 21.594C10.8646 21.7739 11.7415 21.8351 12.6088 21.7811C12.193 21.3065 11.8452 20.7708 11.5806 20.1893ZM20.1892 11.5807C20.1454 10.724 19.9671 9.87295 19.6546 9.05956C18.9469 7.2173 17.5986 5.69207 15.857 4.76379C14.1154 3.8355 12.0975 3.56645 10.1736 4.00601C8.24966 4.44556 6.54879 5.56424 5.38314 7.15672C5.12217 7.51324 4.6216 7.59071 4.26508 7.32975C3.90855 7.06878 3.83109 6.56821 4.09205 6.21168C5.48514 4.30847 7.51789 2.97152 9.81723 2.4462C12.1166 1.92088 14.5282 2.24243 16.6096 3.35184C18.691 4.46125 20.3024 6.28409 21.1482 8.48581C21.6565 9.80898 21.8677 11.2156 21.781 12.6089C21.3064 12.1931 20.7707 11.8453 20.1892 11.5807Z" fill="#222222"/>
<path fill-rule="evenodd" clip-rule="evenodd" d="M12.3682 17.5C12.3682 14.6659 14.6657 12.3684 17.4997 12.3684C20.3338 12.3684 22.6313 14.6659 22.6313 17.5C22.6313 20.3341 20.3338 22.6316 17.4997 22.6316C14.6657 22.6316 12.3682 20.3341 12.3682 17.5ZM17.4962 14.0789C17.8722 14.0789 18.177 14.4101 18.177 14.8186V17.7774C18.177 18.1859 17.8722 18.517 17.4962 18.517C17.1202 18.517 16.8154 18.1859 16.8154 17.7774V14.8186C16.8154 14.4101 17.1202 14.0789 17.4962 14.0789ZM16.8154 20.1813C16.8154 19.7728 17.1202 19.4416 17.4962 19.4416H17.503C17.879 19.4416 18.1839 19.7728 18.1839 20.1813C18.1839 20.5899 17.879 20.921 17.503 20.921H17.4962C17.1202 20.921 16.8154 20.5899 16.8154 20.1813Z" fill="#F44336"/>
</svg>
