<svg width="24" height="24" viewBox="0 0 24 24" fill="none" xmlns="http://www.w3.org/2000/svg">
<path fill-rule="evenodd" clip-rule="evenodd" d="M8.3213 8.57927C8.56766 9.27722 9.2863 9.69113 10.0136 9.55402C10.741 9.4169 11.2596 8.76975 11.2349 8.03001L11.0839 3.49993C11.0695 3.06866 11.441 2.72491 11.8698 2.77256C12.2285 2.81241 12.4998 3.11552 12.4998 3.47634V8.30451C12.4998 9.08339 13.0959 9.73268 13.8719 9.79906C14.648 9.86543 15.3457 9.3268 15.478 8.55924L16.2274 4.21033C16.2642 3.99661 16.4365 3.83212 16.6517 3.80523C16.9698 3.76546 17.2405 4.03539 17.2017 4.35363L16.4623 10.4133C16.377 11.1129 16.7901 11.7775 17.4551 12.0106C18.1202 12.2437 18.8578 11.9824 19.2279 11.3826L20.2806 9.67637C20.3869 9.50401 20.6236 9.43992 20.8018 9.53425C20.9507 9.61302 21.0418 9.80729 20.9613 10.0137C20.3826 11.4973 19.5387 13.8562 19.0338 16.1818C19.0108 16.2879 18.8684 16.6156 18.4997 17.1651C18.1634 17.6664 17.7338 18.2151 17.3064 18.7265C17.2838 18.7535 17.2604 18.7787 17.2364 18.8021C16.9144 19.1156 16.7499 19.5569 16.7882 20.0047L16.8306 20.5H9.82908C9.82948 20.0257 9.60488 19.5759 9.21907 19.2915C8.57701 18.8183 7.94527 17.8631 7.13254 16.5805L7.08013 16.4978C6.54631 15.6549 5.91408 14.6566 5.20968 13.9463C4.73611 13.4687 4.21727 12.9516 3.70926 12.4483C3.32968 12.0722 3.47615 11.4079 4.06821 11.2637C4.34624 11.1959 4.63295 11.2804 4.81957 11.4662L5.66008 12.3029C5.72221 12.3648 5.7853 12.4312 5.84965 12.499C6.0684 12.7293 6.30178 12.9751 6.56198 13.1088C6.74636 13.2413 6.98847 13.2888 7.22206 13.2164C8.40138 12.8511 9.31656 13.0248 9.92094 13.5258C10.5359 14.0356 11.0045 15.0285 10.9657 16.6662C10.9559 17.0803 11.2836 17.4239 11.6977 17.4337C12.1118 17.4435 12.4555 17.1158 12.4653 16.7017C12.5105 14.7911 11.9685 13.2747 10.8782 12.371C10.1276 11.7487 9.19855 11.4838 8.20315 11.527C8.23072 11.2307 8.20784 10.9451 8.1269 10.7241C7.49398 8.99571 6.76989 7.21344 6.04389 5.53712C5.90306 5.21197 6.06989 4.87842 6.36261 4.78033C6.66408 4.67932 7.00306 4.84476 7.10889 5.14458L8.3213 8.57927ZM8.20068 22H18.4643L18.2827 19.8769C18.3435 19.8177 18.4017 19.755 18.4573 19.6885C19.3455 18.6259 20.323 17.3135 20.4996 16.5C20.9799 14.288 21.791 12.0142 22.3587 10.5588C22.7058 9.6691 22.3507 8.65672 21.5034 8.2084C20.9422 7.91149 20.289 7.92745 19.7548 8.19877C19.4543 8.35138 19.1915 8.58479 19.004 8.88876L17.9513 10.595L18.6907 4.5353C18.8477 3.2479 17.7526 2.15594 16.4656 2.31681C16.0748 2.36567 15.7189 2.52673 15.4319 2.76765C15.204 2.95894 15.0196 3.20057 14.8955 3.47634C14.8279 3.62681 14.7781 3.78744 14.7492 3.9556L13.9998 8.30451V3.47634C13.9998 3.10714 13.9087 2.75731 13.7468 2.44951C13.4152 1.81928 12.7868 1.36521 12.0355 1.28173C10.7422 1.13803 9.61645 2.13574 9.58421 3.41788C9.58311 3.46157 9.58328 3.50559 9.58476 3.54991L9.73576 8.07998L8.52335 4.64529C8.42761 4.37404 8.28051 4.13454 8.09672 3.93392C7.55403 3.34153 6.69138 3.08819 5.88603 3.35806C4.73903 3.7424 4.18615 5.02198 4.66743 6.13326C5.00305 6.90819 5.33774 7.70488 5.66252 8.50708C5.86628 9.01035 6.06614 9.5158 6.25988 10.0194C6.41714 10.4282 6.57036 10.8357 6.71837 11.2399L5.87786 10.4031C5.51589 10.0428 5.04513 9.82029 4.54775 9.7583C4.27308 9.72407 3.99029 9.73879 3.71322 9.80628C2.00864 10.2215 1.42074 12.2924 2.65352 13.5138C3.15964 14.0153 3.67515 14.5291 4.14459 15.0025C4.73251 15.5953 5.29108 16.4769 5.86549 17.3834C6.62432 18.5809 7.41079 19.8221 8.32907 20.499L8.20068 22Z" fill="#222222"/>
</svg>
