<svg width="24" height="24" viewBox="0 0 24 24" fill="none" xmlns="http://www.w3.org/2000/svg">
<path fill-rule="evenodd" clip-rule="evenodd" d="M12.1334 2C11.1292 2 10.3151 2.8141 10.3151 3.81835V9.71955L8.45789 4.45827C8.11589 3.48941 7.04889 2.96863 6.07468 3.29507C5.0445 3.64028 4.54574 4.78513 4.98522 5.78022C5.70588 7.41198 6.13111 8.47529 6.87442 10.7568C6.96474 11.034 7.06288 11.3406 7.16571 11.6655L5.8786 10.3956C5.316 9.84055 4.49461 9.616 3.71835 9.80508C2.01159 10.2208 1.42294 12.2944 2.65728 13.5174C3.16225 14.0177 3.67643 14.5302 4.14477 15.0025C4.73269 15.5953 5.29126 16.4769 5.86567 17.3834C6.62444 18.5809 7.41085 19.8219 8.32903 20.4988L8.20063 22H18.4643L18.2625 19.6413C18.3013 19.5946 18.3386 19.5461 18.3744 19.4957C19.1305 18.4311 19.9331 17.1664 20.1022 16.3876C20.6299 13.9569 21.4312 11.4681 21.9111 10.0675C22.1418 9.39403 21.8947 8.65212 21.2963 8.26315C20.5552 7.78149 19.5471 8.00899 19.082 8.76287L17.8922 10.6913L18.6127 4.40594C18.7599 3.12179 17.4779 2.14894 16.2807 2.63634C15.7619 2.84755 15.3803 3.30058 15.2603 3.84771L13.9518 9.81465V3.81835C13.9518 2.8141 13.1377 2 12.1334 2Z" fill="#222222"/>
</svg>
