<svg width="24" height="24" viewBox="0 0 24 24" fill="none" xmlns="http://www.w3.org/2000/svg">
<path fill-rule="evenodd" clip-rule="evenodd" d="M17.0417 21.5878C15.7638 22.16 14.3507 22.4842 12.8636 22.4991C10.4447 22.525 8.00513 21.7199 6.00708 20.0434C5.66537 19.7566 5.6208 19.2472 5.90753 18.9055C6.19425 18.5638 6.7037 18.5192 7.04541 18.8059C8.70905 20.2019 10.7345 20.8838 12.749 20.8843L12.756 20.8843L12.8073 20.8842C14.0247 20.8766 15.2368 20.6202 16.3613 20.1221C19.4714 18.7393 21.6405 15.6225 21.6405 11.9998C21.6405 11.8562 21.6371 11.7134 21.6304 11.5714C21.576 10.4518 21.3111 9.34407 20.8415 8.31233C20.3119 7.15306 19.5403 6.12753 18.5914 5.30031C18.5503 5.26461 18.5089 5.2292 18.4671 5.1941C17.75 4.59237 16.9656 4.12328 16.144 3.78423C15.0829 3.34641 13.9595 3.12544 12.8381 3.11573C11.4694 3.10389 10.1036 3.40677 8.85751 4.01422C7.88247 4.49114 7.00764 5.14137 6.27317 5.92481C6.16296 6.04263 6.05529 6.16409 5.95034 6.28916C5.94485 6.29571 5.93927 6.30215 5.93361 6.30848C4.75375 7.72125 4.00447 9.50611 3.88759 11.4614H5.32542C5.65733 11.4614 5.86412 11.7888 5.69689 12.0495L3.43531 15.575C3.26937 15.8337 2.85833 15.8337 2.69239 15.575L0.430811 12.0495C0.263574 11.7888 0.470369 11.4614 0.802272 11.4614H2.26974C2.39863 8.90969 3.4385 6.59834 5.07052 4.84587C5.98079 3.86633 7.03987 3.09763 8.18339 2.54539C9.5657 1.87558 11.1171 1.5 12.756 1.5H12.7597C13.1291 1.49993 13.4987 1.51925 13.8671 1.5581C15.4052 1.71989 16.8444 2.21379 18.1117 2.96679C18.6652 3.29564 19.1858 3.67391 19.6676 4.09551C20.8215 5.10366 21.7029 6.31152 22.3034 7.6241C22.8516 8.81831 23.1824 10.1331 23.245 11.5178C23.3624 14.0579 22.5631 16.6475 20.7996 18.7492C19.7417 20.01 18.4503 20.9596 17.0417 21.5878ZM13.2197 8.46967C13.2197 8.05545 12.8839 7.71967 12.4697 7.71967C12.0555 7.71967 11.7197 8.05545 11.7197 8.46967V12.9697C11.7197 13.1686 11.7987 13.3593 11.9394 13.5L14.4394 16C14.7323 16.2929 15.2072 16.2929 15.5001 16C15.7929 15.7071 15.7929 15.2322 15.5001 14.9393L13.2197 12.659V8.46967Z" fill="#222222"/>
</svg>
