<svg width="24" height="24" viewBox="0 0 24 24" fill="none" xmlns="http://www.w3.org/2000/svg">
<path d="M16 9H4V19C4 20.6569 5.34315 22 7 22H13C14.6569 22 16 20.6569 16 19V9Z" stroke="#222222" stroke-width="1.387"/>
<path d="M16 10H19C20.1046 10 21 10.8954 21 12V17C21 18.1046 20.1046 19 19 19H16" stroke="#222222" stroke-width="1.38" stroke-linecap="round" stroke-linejoin="round"/>
<path d="M3 6.66667C3 4.91667 3.90233 3.99563 5.35208 3.99563C5.40172 3.99563 5.45104 3.9971 5.5 4C5.8592 2.9102 7.10553 2 8.25 2C8.92231 2 9.53559 2.2696 10 2.71297C10.4644 2.2696 11.0777 2 11.75 2C12.8945 2 14.1408 2.9102 14.5 4C14.549 3.9971 14.5983 3.99563 14.6479 3.99563C16.0977 3.99563 17 4.91667 17 6.66667C17 8.41667 16 9 16 9H4C4 9 3 8.41667 3 6.66667Z" stroke="#222222" stroke-width="1.38" stroke-linecap="round"/>
</svg>
