<svg width="24" height="24" viewBox="0 0 24 24" fill="none" xmlns="http://www.w3.org/2000/svg">
<path d="M21 9L12.9713 4.5396C12.3672 4.20402 11.6328 4.20402 11.0287 4.5396L4.57348 8.12584C3.88767 8.50685 3.88767 9.49315 4.57348 9.87416L6 10.6667M21 9L18 10.6667M21 9V18M6 10.6667L11.0287 13.4604C11.6328 13.796 12.3672 13.796 12.9713 13.4604L18 10.6667M6 10.6667V14.4899C6 15.2162 6.39378 15.8854 7.02871 16.2382L10.9729 18.4294C11.607 18.7816 12.3821 18.763 12.9985 18.3806L17.0543 15.8644C17.6423 15.4997 18 14.8569 18 14.1649V10.6667" stroke="#222222" stroke-width="1.38" stroke-linecap="round" stroke-linejoin="round"/>
</svg>
