<svg width="24" height="24" viewBox="0 0 24 24" fill="none" xmlns="http://www.w3.org/2000/svg">
<path d="M3 19C3 17.8954 3.89543 17 5 17H17V21H5C3.89543 21 3 20.1046 3 19V19Z" stroke="#222222" stroke-width="1.38" stroke-linejoin="round"/>
<path d="M17 17H20V21H17V17Z" stroke="#222222" stroke-width="1.38" stroke-linejoin="round"/>
<path d="M16.7 7.73C17.32 7.12 17.7 6.28 17.7 5.35C17.7 3.75572 16.586 2.42137 15.0941 2.08294C14.6901 1.99131 14.35 2.33579 14.35 2.75C14.35 3.16421 14.6993 3.4861 15.0797 3.65002C15.7379 3.93368 16.2 4.58895 16.2 5.35C16.2 6.11105 15.7379 6.76632 15.0797 7.04998C14.6993 7.2139 14.35 7.53579 14.35 7.95C14.35 8.36421 14.689 8.6925 15.096 8.76934C16.9687 9.12287 18.35 10.7855 18.35 12.77V14.25C18.35 14.6642 18.6858 15 19.1 15C19.5142 15 19.85 14.6642 19.85 14.25V12.76C19.85 10.54 18.57 8.62 16.7 7.73Z" fill="#222222"/>
<path d="M13.8799 10.2H12.3499C11.3299 10.2 10.5 9.27 10.5 8.25C10.5 7.4904 10.9603 6.89162 11.6166 6.63541C12.0025 6.48477 12.35 6.16421 12.35 5.75C12.35 5.33579 12.0099 4.99131 11.6059 5.08294C10.114 5.42137 9 6.75572 9 8.35C9 10.2 10.4999 11.65 12.3499 11.65H13.8799C14.9299 11.65 15.8499 12.39 15.8499 13.7V14.25C15.8499 14.6642 16.1857 15 16.5999 15C17.0141 15 17.3499 14.6642 17.3499 14.25V13.36C17.3499 11.55 15.7499 10.2 13.8799 10.2Z" fill="#222222"/>
</svg>
