<svg width="24" height="24" viewBox="0 0 24 24" fill="none" xmlns="http://www.w3.org/2000/svg">
<path d="M11.9726 17C11.5621 17 11.2294 16.6927 11.2294 16.3136L11.2294 10.1148L8.20753 12.1949C7.88699 12.4317 7.41929 12.3837 7.16287 12.0877C6.90647 11.7916 6.95845 11.3596 7.27898 11.1228L11.5086 8.15041C11.7801 7.94985 12.1658 7.94986 12.4372 8.15044L16.7211 11.2301C17.0416 11.4669 17.0935 11.8989 16.8371 12.1949C16.5807 12.4909 16.113 12.5389 15.7924 12.3021L12.7158 10.1145L12.7158 16.3136C12.7158 16.6927 12.3831 17 11.9726 17Z" fill="#222222"/>
<path d="M12 20.325C12 20.6978 12.3033 21.0026 12.6751 20.9751C17.3306 20.6298 21 16.7429 21 12C21 7.25708 17.3306 3.37014 12.6751 3.02493C12.3033 2.99737 12 3.3022 12 3.67498C12 4.04778 12.3032 4.34689 12.6746 4.37934C16.5838 4.72092 19.65 8.00283 19.65 12C19.65 15.9972 16.5838 19.2791 12.6746 19.6207C12.3033 19.6531 12 19.9522 12 20.325Z" fill="#222222"/>
<path fill-rule="evenodd" clip-rule="evenodd" d="M6.86282 4.29282C7.28044 4.00886 7.72664 3.75649 8.19953 3.54027C8.67242 3.32404 9.15442 3.15199 9.6409 3.02256C10.0009 2.92678 10.3694 3.14478 10.464 3.50947C10.5585 3.87416 10.3433 4.24745 9.9833 4.34323C9.56921 4.4534 9.15819 4.60004 8.75407 4.78481C8.34996 4.96959 7.96952 5.18485 7.61404 5.42656C7.30498 5.6367 6.88628 5.55326 6.67884 5.24019C6.47139 4.92712 6.55376 4.50297 6.86282 4.29282ZM5.0122 7.03902C5.33357 7.22926 5.44184 7.6474 5.25404 7.97295C4.81429 8.73523 4.50339 9.5684 4.33541 10.4348C4.26367 10.8047 3.90943 11.0458 3.54419 10.9731C3.17895 10.9004 2.94102 10.5416 3.01276 10.1716C3.20981 9.1553 3.57442 8.17821 4.09027 7.28401C4.27807 6.95846 4.69083 6.84877 5.0122 7.03902ZM3.61946 13.4389C3.97947 13.3432 4.34796 13.5612 4.44251 13.9258C4.55127 14.3453 4.69602 14.7617 4.87843 15.1711C5.06083 15.5804 5.27333 15.9658 5.51193 16.3259C5.71938 16.639 5.63701 17.0632 5.32796 17.2733C5.0189 17.4834 4.6002 17.4 4.39276 17.0869C4.11244 16.6639 3.86331 16.2119 3.64986 15.7328C3.43641 15.2538 3.26658 14.7655 3.13881 14.2727C3.04426 13.908 3.25945 13.5347 3.61946 13.4389ZM7.10368 18.9616C7.29149 18.6361 7.70425 18.5264 8.02561 18.7166C8.77811 19.1621 9.60058 19.477 10.4558 19.6472C10.821 19.7199 11.059 20.0787 10.9872 20.4487C10.9155 20.8187 10.5613 21.0597 10.196 20.9871C9.19279 20.7875 8.22824 20.4181 7.34552 19.8955C7.02416 19.7053 6.91588 19.2872 7.10368 18.9616Z" fill="#222222"/>
</svg>
