<svg width="24" height="24" viewBox="0 0 24 24" fill="none" xmlns="http://www.w3.org/2000/svg">
<path fill-rule="evenodd" clip-rule="evenodd" d="M14.2 6.49976C14.2 7.71478 13.215 8.69976 12 8.69976C10.785 8.69976 9.8 7.71478 9.8 6.49976C9.8 5.28473 10.785 4.29976 12 4.29976C13.215 4.29976 14.2 5.28473 14.2 6.49976ZM12.7001 9.92972C14.2976 9.6054 15.5 8.19299 15.5 6.49976C15.5 4.56676 13.933 2.99976 12 2.99976C10.067 2.99976 8.5 4.56676 8.5 6.49976C8.5 8.19306 9.70248 9.60551 11.3001 9.92976V13.1721L8.5668 15.4498C8.39008 15.3852 8.1992 15.3499 8.0001 15.3499H5.0001C4.08883 15.3499 3.3501 16.0887 3.3501 16.9999V19.9999C3.3501 20.9112 4.08883 21.6499 5.0001 21.6499H8.0001C8.91137 21.6499 9.6501 20.9112 9.6501 19.9999V16.9999C9.6501 16.8064 9.61679 16.6207 9.5556 16.4482L12.0001 14.4111L14.4446 16.4482C14.3834 16.6207 14.3501 16.8064 14.3501 16.9999V19.9999C14.3501 20.9112 15.0888 21.6499 16.0001 21.6499H19.0001C19.9114 21.6499 20.6501 20.9112 20.6501 19.9999V16.9999C20.6501 16.0887 19.9114 15.3499 19.0001 15.3499H16.0001C15.801 15.3499 15.6101 15.3852 15.4334 15.4498L12.7001 13.1721V9.92972ZM4.6501 16.9999C4.6501 16.8066 4.8068 16.6499 5.0001 16.6499H8.0001C8.1934 16.6499 8.3501 16.8066 8.3501 16.9999V19.9999C8.3501 20.1932 8.1934 20.3499 8.0001 20.3499H5.0001C4.8068 20.3499 4.6501 20.1932 4.6501 19.9999V16.9999ZM16.0001 16.6499C15.8068 16.6499 15.6501 16.8066 15.6501 16.9999V19.9999C15.6501 20.1932 15.8068 20.3499 16.0001 20.3499H19.0001C19.1934 20.3499 19.3501 20.1932 19.3501 19.9999V16.9999C19.3501 16.8066 19.1934 16.6499 19.0001 16.6499H16.0001Z" fill="#222222"/>
</svg>
